<svg width="24" height="27" fill="none" xmlns="http://www.w3.org/2000/svg"><path d="M6.5 26a2.986 2.986 0 003-3v-6m8 9a2.986 2.986 0 01-3-3v-6m.5 0h2a2.988 2.988 0 013 3v1a2.986 2.986 0 003 3M9 17H7a2.988 2.988 0 00-3 3v1a2.987 2.987 0 01-3 3" stroke="#3F3F46" stroke-width="2" stroke-linecap="round" stroke-linejoin="round"/><path d="M9.975 4A6.5 6.5 0 004.5 1a6.5 6.5 0 00-.438 5.588A6.163 6.163 0 003 10v1a6 6 0 006 6h6a6 6 0 006-6v-1a6.163 6.163 0 00-1.063-3.412A6.5 6.5 0 0019.5 1a6.5 6.5 0 00-5.475 3h-4.05z" stroke="#3F3F46" stroke-width="2" stroke-linecap="round" stroke-linejoin="round"/></svg>