<svg width="40" height="40" fill="none" xmlns="http://www.w3.org/2000/svg"><path fill-rule="evenodd" clip-rule="evenodd" d="M39.644 30.614c-.781 1.278-2.695 2.189-2.695 2.189L22.708 39.43v-4.887l10.48-4.838c1.19-.553 1.372-1.333.405-1.743-.965-.41-2.712-.293-3.902.262l-6.983 3.186v-5.072l.402-.177s2.018-.925 4.856-1.332c2.837-.405 6.312.055 9.039 1.395 3.074 1.258 3.42 3.113 2.64 4.39zm-15.58-8.322v-12.5c0-1.467-.21-2.818-1.272-3.201-.815-.338-1.32.641-1.32 2.108V40l-6.515-2.68V0c2.77.666 6.806 2.241 8.976 3.189 5.517 2.454 7.388 5.51 7.388 12.392 0 6.709-3.196 9.251-7.258 6.71zM3.002 34.032C-.153 32.88-.678 30.482.76 29.1c1.33-1.277 3.59-2.237 3.59-2.237l9.341-4.304v4.907L6.97 30.583c-1.187.552-1.37 1.333-.405 1.743.966.41 2.714.293 3.903-.26l3.224-1.516v4.39c-.204.047-.432.093-.643.14-3.225.682-6.66.397-10.046-1.048zm34.567 1.943c.408 0 .79.205 1.079.583.288.372.447.869.447 1.396 0 .53-.16 1.024-.447 1.396-.288.376-.67.58-1.079.58-.408 0-.79-.204-1.078-.58-.288-.372-.446-.866-.446-1.396 0-1.09.683-1.979 1.524-1.979zm-1.268 1.98c0 .438.131.851.371 1.16.24.313.56.482.897.482.7 0 1.268-.736 1.268-1.643 0-.44-.13-.853-.371-1.163-.24-.313-.559-.481-.897-.481-.338 0-.658.168-.897.481a1.9 1.9 0 00-.371 1.163zm1.729-1.066c.167.095.251.279.251.54a.747.747 0 01-.066.336.532.532 0 01-.128.16c.04.03.075.067.102.11a.62.62 0 01.06.291l.008.281a.923.923 0 00.015.169c.01.051.027.084.049.095l.022.014v.128h-.329l-.01-.024a.471.471 0 01-.022-.086 1.729 1.729 0 01-.012-.172l-.014-.35c-.004-.12-.035-.196-.095-.236a.376.376 0 00-.183-.033h-.462v.902h-.296v-2.201h.789c.13 0 .237.025.32.076zm-.814.886h.47c.095 0 .17-.022.224-.068.049-.046.073-.13.073-.25 0-.133-.034-.219-.105-.264a.303.303 0 00-.163-.04h-.5v.622z" fill="#fff"/></svg>