<svg width="40" height="40" fill="none" xmlns="http://www.w3.org/2000/svg"><path d="M19.965 0C9.441 0 .82 8.101 0 18.396l10.738 4.432a5.638 5.638 0 013.507-.976l4.776-6.91v-.097c0-4.158 3.39-7.542 7.555-7.542 4.166 0 7.556 3.384 7.556 7.542 0 4.158-3.39 7.544-7.556 7.544a6.54 6.54 0 01-.171-.003l-6.812 4.85c.005.09.008.18.008.268 0 3.123-2.545 5.662-5.671 5.662a5.677 5.677 0 01-5.56-4.546L.69 25.45C3.067 33.845 10.793 40 19.964 40 31.031 40 40 31.045 40 20 40 8.954 31.03 0 19.965 0zm-7.41 30.347l-2.46-1.016a4.224 4.224 0 002.192 2.082 4.261 4.261 0 005.564-2.287 4.216 4.216 0 00.007-3.251 4.226 4.226 0 00-2.297-2.305 4.251 4.251 0 00-3.139-.047l2.543 1.05a3.125 3.125 0 011.687 4.09 3.135 3.135 0 01-4.097 1.684zm19.056-15.502a5.037 5.037 0 00-5.034-5.027 5.037 5.037 0 00-5.035 5.027c0 2.77 2.258 5.025 5.035 5.025 2.775 0 5.034-2.254 5.034-5.025zm-8.808-.009a3.779 3.779 0 013.781-3.774 3.779 3.779 0 013.783 3.774 3.779 3.779 0 01-3.783 3.775 3.778 3.778 0 01-3.781-3.775z" fill="#fff"/></svg>