<svg width="40" height="40" viewBox="0 0 40 40" fill="none" xmlns="http://www.w3.org/2000/svg">
<path fill-rule="evenodd" clip-rule="evenodd" d="M39.6443 30.6145C38.8629 31.8917 36.9486 32.8028 36.9486 32.8028L22.708 39.4303V34.5427L33.1881 29.7045C34.3774 29.1524 34.56 28.372 33.5933 27.9623C32.6284 27.5515 30.8813 27.6692 29.6911 28.2237L22.708 31.4102V26.3378L23.1105 26.1613C23.1105 26.1613 25.1284 25.236 27.9658 24.8287C30.8032 24.4238 34.2775 24.8841 37.0049 26.2237C40.0786 27.482 40.4247 29.3373 39.6443 30.6145ZM24.0635 22.2919V9.79282C24.0635 8.3249 23.8546 6.97351 22.7916 6.59094C21.9775 6.25309 21.4723 7.23249 21.4723 8.69923V40L14.9571 37.3208V0C17.7273 0.666275 21.7631 2.24132 23.9327 3.18894C29.4503 5.64332 31.321 8.69806 31.321 15.5809C31.321 22.2896 28.1248 24.8323 24.0635 22.2919ZM3.00242 34.0318C-0.152971 32.8805 -0.678113 30.4815 0.760122 29.0995C2.08933 27.8234 4.34981 26.8629 4.34981 26.8629L13.6915 22.5592V27.4656L6.96916 30.5827C5.78168 31.1348 5.59906 31.9164 6.56394 32.3261C7.52973 32.7357 9.27778 32.6192 10.4671 32.0659L13.6915 30.5497V34.9394C13.4871 34.9865 13.2591 35.0335 13.0483 35.0795C9.82291 35.7622 6.38768 35.4773 3.00242 34.0318ZM37.5691 35.9753C37.9771 35.9753 38.3596 36.1801 38.6476 36.558C38.9356 36.93 39.0946 37.4267 39.0946 37.9541C39.0946 38.4838 38.9356 38.9782 38.6476 39.3502C38.3596 39.7257 37.9771 39.9305 37.5691 39.9305C37.1612 39.9305 36.7796 39.7257 36.4907 39.3502C36.2027 38.9782 36.0446 38.4838 36.0446 37.9541C36.0446 36.864 36.7278 35.9753 37.5691 35.9753ZM36.3008 37.9541C36.3008 38.3932 36.4325 38.8064 36.6724 39.1148C36.9114 39.4279 37.2312 39.5974 37.5691 39.5974C38.2696 39.5974 38.8375 38.8605 38.8375 37.9541C38.8375 37.5138 38.7066 37.1006 38.4659 36.7911C38.2269 36.4779 37.9071 36.3096 37.5691 36.3096C37.2312 36.3096 36.9114 36.4779 36.6724 36.7911C36.4325 37.1006 36.3008 37.5138 36.3008 37.9541ZM38.0298 36.8888C38.1969 36.9841 38.2814 37.1677 38.2814 37.4291C38.2814 37.5633 38.2596 37.6763 38.2151 37.7646C38.1833 37.8281 38.1379 37.8799 38.087 37.9247C38.127 37.9553 38.1624 37.9918 38.1888 38.0341C38.2251 38.0954 38.246 38.1931 38.2487 38.3261L38.2569 38.6074C38.2596 38.6828 38.2633 38.7404 38.2724 38.7758C38.2815 38.8275 38.2987 38.8605 38.3205 38.8711L38.3432 38.8852V38.917V38.9653V39.0135H38.306H38.0361H38.0143L38.0034 38.9888C37.9943 38.9653 37.988 38.9382 37.9816 38.9029C37.9771 38.8711 37.9725 38.8158 37.9698 38.731L37.9562 38.3814C37.9525 38.2602 37.9207 38.1848 37.8608 38.1448C37.8235 38.1225 37.7617 38.1119 37.6782 38.1119H37.2157V38.9653V39.0136H37.1775H36.9577H36.9204V38.9653V36.8617V36.8134H36.9577H37.709C37.8381 36.8134 37.9462 36.8381 38.0298 36.8888ZM37.2157 37.7752H37.6863C37.7808 37.7752 37.8562 37.7528 37.9098 37.7069C37.9589 37.661 37.9825 37.5774 37.9825 37.4562C37.9825 37.3243 37.9489 37.2384 37.878 37.1925C37.839 37.1678 37.7845 37.1536 37.7154 37.1536H37.2157V37.7752Z" fill="white"/>
</svg>
