<svg width="40" height="40" viewBox="0 0 40 40" fill="none" xmlns="http://www.w3.org/2000/svg">
<path d="M19.9654 0C9.44068 0 0.818798 8.10125 0 18.3957L10.7381 22.8278C11.6477 22.2061 12.7476 21.8439 13.9297 21.8439C14.0363 21.8439 14.1416 21.8467 14.2454 21.8524L19.0212 14.9419V14.8449C19.0212 10.6866 22.4103 7.30267 26.5763 7.30267C30.7424 7.30267 34.1315 10.6866 34.1315 14.8449C34.1315 19.0032 30.7424 22.3886 26.5763 22.3886C26.5187 22.3886 26.4624 22.3872 26.4048 22.3857L19.5935 27.2357C19.5978 27.3255 19.6007 27.4153 19.6007 27.5037C19.6007 30.6267 17.0564 33.1665 13.9297 33.1665C11.185 33.1665 8.88857 31.21 8.36961 28.6203L0.689059 25.4503C3.06761 33.8453 10.7943 40 19.9654 40C31.0307 40 40 31.0446 40 20C40 8.95401 31.0307 0 19.9654 0ZM12.555 30.3467L10.0943 29.3313C10.5296 30.2383 11.285 30.9969 12.2869 31.4133C14.4521 32.3146 16.9488 31.2893 17.8512 29.126C18.288 28.0793 18.2909 26.9242 17.8584 25.8747C17.426 24.8251 16.6086 24.0066 15.5606 23.5702C14.5184 23.1381 13.4026 23.1538 12.4224 23.5231L14.9653 24.5727C16.5625 25.2372 17.3179 27.0682 16.6519 28.6625C15.9873 30.2568 14.1522 31.0112 12.555 30.3467ZM31.6108 14.8451C31.6108 12.0743 29.3519 9.81832 26.5769 9.81832C23.8005 9.81832 21.5416 12.0743 21.5416 14.8451C21.5416 17.6158 23.8005 19.8704 26.5769 19.8704C29.3519 19.8704 31.6108 17.6158 31.6108 14.8451ZM22.8029 14.8365C22.8029 12.7517 24.4968 11.0618 26.5841 11.0618C28.6729 11.0618 30.3667 12.7517 30.3667 14.8365C30.3667 16.9214 28.6729 18.6112 26.5841 18.6112C24.4968 18.6112 22.8029 16.9214 22.8029 14.8365Z" fill="white"/>
</svg>
